:SAMPLES-PER-SECOND 30
:FULLY-SPECIFIED
:DEGREES
223
root  7.67185 38.7501 1.00025 -176.252 89.2276 -170.389
RightUpLeg  2.08031 -5.51106 4.23064
RightLeg  21.8292 2.25422 0.510002
RightFoot  -15.2021 -0.370168 -7.9229
RightToes  -8.73116e-010 0 -3.6325e-017
Spine  7.25112 -0.209338 10.4299
Spine1  7.35454 1.18722 -1.05139
HEad  -11.4445 -1.30743 -4.09968
LeftShoulder1  -0.168234 3.98059 -29.1413
LeftArm  -10.9742 12.7709 -30.132
LeftForeArm  74.3323 -78.9162 -95.5062
LeftHand  0.0870768 0.991163 -2.53246
RightShoulder  -0.425143 -4.77507 26.5027
RightArm  -8.22384 -17.9627 35.6622
RightForeArm  110.851 71.8103 141.848
RightHand  -0.360134 3.29776 -5.06512
LeftUpLeg  -21.0524 -6.77577 3.46914
LeftLeg  45.1612 -2.28688 -2.08873
LeftFoot  -0.634265 -0.0999318 1.05386
LeftToes  -5.63919e-011 3.32596e-011 1.92487e-011
224
root  9.46596 38.8031 0.925771 -47.2941 89.4856 -41.4053
RightUpLeg  6.8819 -6.34225 3.21695
RightLeg  18.3759 4.26647 0.822171
RightFoot  -16.1664 -0.442856 -7.91537
RightToes  -8.73116e-010 0 -3.6325e-017
Spine  6.67197 0.127475 10.5573
Spine1  7.50831 1.62234 -2.58122
HEad  -12.0403 -0.876175 -4.19086
LeftShoulder1  -0.181987 4.01404 -29.5006
LeftArm  -12.1004 12.8742 -28.783
LeftForeArm  74.7534 -78.9043 -96.014
LeftHand  0.138086 0.522023 -3.38582
RightShoulder  -0.357312 -4.58269 26.0742
RightArm  -8.21977 -17.2543 36.5355
RightForeArm  110.93 71.8755 141.71
RightHand  -0.287865 2.18975 -4.61061
LeftUpLeg  -21.268 -5.77498 3.81692
LeftLeg  31.9305 -3.28564 -1.85204
LeftFoot  -1.66617 0.110701 -1.17191
LeftToes  -5.63919e-011 3.32596e-011 1.92487e-011
225
root  11.2353 38.7203 0.879429 3.22488 88.5171 8.89127
RightUpLeg  11.3671 -7.0011 2.14264
RightLeg  14.9797 6.15148 0.83375
RightFoot  -17.2648 -0.511648 -7.61525
RightToes  -8.73116e-010 0 -3.6325e-017
Spine  6.12329 0.474489 10.0361
Spine1  7.66195 1.91683 -3.4109
HEad  -13.0768 -0.206064 -4.18853
LeftShoulder1  -0.232746 4.14706 -30.0545
LeftArm  -13.715 12.7815 -27.8851
LeftForeArm  77.4082 -78.8142 -98.9202
LeftHand  0.188895 -0.0105228 -4.10083
RightShoulder  -0.329352 -4.50597 25.7437
RightArm  -7.95601 -16.4683 37.3693
RightForeArm  109.384 71.7253 141.84
RightHand  -0.364927 3.05131 -5.26332
LeftUpLeg  -20.7517 -3.10316 3.71093
LeftLeg  17.5099 -5.67084 -1.46364
LeftFoot  -1.88547 0.231663 -2.66031
LeftToes  -5.63919e-011 3.32596e-011 1.92487e-011
226
root  13.0218 38.5125 0.868839 -0.670654 86.9493 4.85999
RightUpLeg  15.6816 -7.22505 1.17824
RightLeg  12.1067 8.02701 0.646207
RightFoot  -18.4232 -0.57641 -7.29564
RightToes  -8.73116e-010 0 -3.6325e-017
Spine  5.34334 0.954283 9.48265
Spine1  8.34135 2.52482 -4.52228
HEad  -14.2645 0.46207 -3.42128
LeftShoulder1  -0.251443 4.19714 -30.1301
LeftArm  -15.6606 13.5733 -27.6473
LeftForeArm  87.7152 -78.3829 -108.621
LeftHand  0.172277 0.202699 -3.92125
RightShoulder  -0.269239 -4.32924 25.3293
RightArm  -7.36768 -15.5671 38.2292
RightForeArm  106.643 71.7969 141.311
RightHand  -0.470441 2.39412 -7.2101
LeftUpLeg  -19.9581 1.78512 2.94714
LeftLeg  5.423 -7.35144 -0.156353
LeftFoot  -1.85125 0.413684 -4.84926
LeftToes  -5.63919e-011 3.32596e-011 1.92487e-011
227
root  14.8336 38.1281 0.782625 0.66037 85.9907 6.71094
RightUpLeg  19.7682 -7.41233 -0.0249308
RightLeg  11.3046 9.1087 0.401505
RightFoot  -20.3337 -0.639245 -6.3875
RightToes  -8.73116e-010 0 -3.6325e-017
Spine  5.46716 1.0873 9.03582
Spine1  8.76025 2.94359 -5.56068
HEad  -15.1592 1.01161 -2.70443
LeftShoulder1  -0.307024 4.35098 -30.0941
LeftArm  -17.0898 13.6517 -27.7218
LeftForeArm  96.9279 -77.6859 -117.133
LeftHand  0.151816 -0.0018479 -3.29676
RightShoulder  -0.252966 -4.28311 25.1192
RightArm  -7.09384 -14.9544 39.0244
RightForeArm  105.394 71.7591 141.235
RightHand  -0.501678 2.70643 -7.39059
LeftUpLeg  -19.8594 3.7898 2.6576
LeftLeg  0.814609 -3.64575 -0.263097
LeftFoot  -1.95375 0.435211 -5.13169
LeftToes  -5.63919e-011 3.32596e-011 1.92487e-011
228
root  16.7361 37.5912 0.621601 -0.65274 85.6928 5.65787
RightUpLeg  22.5379 -7.18357 -1.07465
RightLeg  13.113 9.50773 0.873129
RightFoot  -22.69 -0.622424 -4.73716
RightToes  -8.73116e-010 0 -3.6325e-017
Spine  5.27379 1.17897 8.83759
Spine1  8.90158 3.17339 -6.12725
HEad  -15.5046 0.922515 -2.07889
LeftShoulder1  -0.408855 4.63077 -30.1355
LeftArm  -17.6083 13.119 -27.9637
LeftForeArm  103.459 -77.0545 -122.682
LeftHand  0.140333 -0.235487 -2.88574
RightShoulder  -0.307975 -4.45438 25.2222
RightArm  -7.00367 -14.9952 39.3656
RightForeArm  104.721 71.5892 141.539
RightHand  -0.580027 3.35961 -7.92856
LeftUpLeg  -21.1585 3.83473 2.25752
LeftLeg  4.19143 0.762721 -0.304265
LeftFoot  -2.24159 0.302076 -3.52418
LeftToes  -5.63919e-011 3.32596e-011 1.92487e-011
229
root  18.7831 37.1006 0.484442 6.45123 85.49 13.2403
RightUpLeg  25.251 -5.25075 -2.08417
RightLeg  15.6506 8.69761 1.47906
RightFoot  -23.9698 -0.34815 -1.69606
RightToes  -8.73116e-010 0 -3.6325e-017
Spine  4.58475 1.48892 8.10601
Spine1  9.51424 3.72223 -7.12151
HEad  -15.2236 0.639713 -1.10104
LeftShoulder1  -0.409394 4.63812 -29.932
LeftArm  -17.7239 12.5312 -28.3935
LeftForeArm  106.779 -76.8363 -124.623
LeftHand  0.15969 -0.905033 -2.87445
RightShoulder  -0.393367 -4.69943 25.932
RightArm  -7.40503 -16.1605 39.2247
RightForeArm  105.62 71.4805 141.901
RightHand  -0.470777 2.67664 -6.99106
LeftUpLeg  -22.2223 3.85098 0.648645
LeftLeg  11.1474 1.00383 0.19503
LeftFoot  1.70368 0.0646992 -1.14268
LeftToes  -5.63919e-011 3.32596e-011 1.92487e-011
230
root  20.827 36.7226 0.325208 19.8015 84.5278 27.6143
RightUpLeg  27.0178 -1.73003 -3.43809
RightLeg  20.7362 6.88766 2.70761
RightFoot  -23.3747 0.206723 3.43289
RightToes  -8.73116e-010 0 -3.6325e-017
Spine  4.99155 1.88257 6.16855
Spine1  9.39951 4.21828 -7.95026
HEad  -14.6357 0.689072 -0.150669
LeftShoulder1  -0.395123 4.60381 -29.7126
LeftArm  -17.147 12.9222 -28.3434
LeftForeArm  107.663 -76.7033 -125.484
LeftHand  0.146905 -0.983431 -2.59303
RightShoulder  -0.44504 -4.81988 26.8971
RightArm  -7.70182 -17.3899 38.5561
RightForeArm  105.574 71.8404 141.062
RightHand  -0.429894 2.96207 -6.19303
LeftUpLeg  -22.334 3.68161 -1.48148
LeftLeg  17.421 0.426144 0.413751
LeftFoot  9.97247 -0.513846 2.56755
LeftToes  -5.63919e-011 3.32596e-011 1.92487e-011
231
root  22.7691 36.3573 0.212352 41.4865 83.9228 50.4117
RightUpLeg  25.3386 -2.04688 -6.94987
RightLeg  32.0897 6.18642 3.88807
RightFoot  -18.772 0.491237 10.9511
RightToes  -8.73116e-010 0 -3.6325e-017
Spine  6.40263 1.80944 1.60499
Spine1  8.36668 3.40871 -6.38529
HEad  -14.3015 0.674944 0.441267
LeftShoulder1  -0.553127 5.01761 -30.4072
LeftArm  -16.174 12.9927 -27.6096
LeftForeArm  105.654 -76.9483 -123.769
LeftHand  0.151535 -0.961419 -2.68789
RightShoulder  -0.505512 -4.96734 27.7164
RightArm  -7.15053 -17.7818 38.4281
RightForeArm  102.758 72.6441 138.701
RightHand  -0.515069 3.36384 -7.07011
LeftUpLeg  -22.7671 2.14315 -4.08324
LeftLeg  26.1874 0.937245 0.858354
LeftFoot  6.32321 -0.595162 3.60922
LeftToes  -5.63919e-011 3.32596e-011 1.92487e-011
232
root  24.5053 36.2433 0.0474156 57.834 82.9072 67.821
RightUpLeg  19.5786 -2.4567 -10.1789
RightLeg  46.8677 4.16022 4.45315
RightFoot  -4.74106 -0.611519 13.8542
RightToes  -8.73116e-010 0 -3.6325e-017
Spine  8.07357 1.53971 -0.84614
Spine1  8.36444 2.99142 -7.08743
HEad  -15.1572 0.363151 0.504385
LeftShoulder1  -0.452106 4.73203 -30.6707
LeftArm  -15.4471 12.3557 -27.6181
LeftForeArm  100.774 -77.6154 -118.719
LeftHand  0.123384 -0.839567 -2.23018
RightShoulder  -0.473002 -4.87961 27.4789
RightArm  -7.39727 -18.4663 39.6375
RightForeArm  101.314 73.1588 137.099
RightHand  -0.548135 3.48026 -7.41553
LeftUpLeg  -21.1497 0.860332 -6.86177
LeftLeg  30.7631 1.80476 1.50823
LeftFoot  1.70969 -0.559138 4.77063
LeftToes  -5.63919e-011 3.32596e-011 1.92487e-011
